<mxfile host="app.diagrams.net" modified="2024-04-01T13:48:13.718Z" agent="Mozilla/5.0 (Windows NT 10.0; Win64; x64) AppleWebKit/537.36 (KHTML, like Gecko) Chrome/123.0.0.0 Safari/537.36" etag="dlq51rx_N4fTTn-_uJ36" version="24.2.1" type="github">
  <diagram name="第 1 页" id="LHod5ZTC5KH9_Z7Ly6iD">
    <mxGraphModel dx="1139" dy="680" grid="0" gridSize="10" guides="1" tooltips="1" connect="1" arrows="1" fold="1" page="0" pageScale="1" pageWidth="827" pageHeight="1169" math="0" shadow="0">
      <root>
        <mxCell id="0" />
        <mxCell id="1" parent="0" />
        <mxCell id="YsJ4Qs1vf3LCJdpIA0Ks-12" value="" style="rounded=0;whiteSpace=wrap;html=1;fillColor=#fff2cc;strokeColor=#d6b656;opacity=60;" vertex="1" parent="1">
          <mxGeometry x="-179" y="73" width="568" height="202" as="geometry" />
        </mxCell>
        <mxCell id="YsJ4Qs1vf3LCJdpIA0Ks-5" value="" style="rounded=0;whiteSpace=wrap;html=1;fillColor=#e1d5e7;strokeColor=#9673a6;opacity=60;" vertex="1" parent="1">
          <mxGeometry x="-179" y="275" width="568" height="107" as="geometry" />
        </mxCell>
        <mxCell id="YsJ4Qs1vf3LCJdpIA0Ks-9" style="edgeStyle=none;curved=1;rounded=0;orthogonalLoop=1;jettySize=auto;html=1;exitX=0.5;exitY=0;exitDx=0;exitDy=0;entryX=0.5;entryY=1;entryDx=0;entryDy=0;fontSize=12;startSize=8;endSize=8;" edge="1" parent="1" source="YsJ4Qs1vf3LCJdpIA0Ks-3" target="YsJ4Qs1vf3LCJdpIA0Ks-8">
          <mxGeometry relative="1" as="geometry" />
        </mxCell>
        <mxCell id="YsJ4Qs1vf3LCJdpIA0Ks-10" value="DMA拷贝" style="edgeLabel;html=1;align=center;verticalAlign=middle;resizable=0;points=[];fontSize=12;" vertex="1" connectable="0" parent="YsJ4Qs1vf3LCJdpIA0Ks-9">
          <mxGeometry x="-0.25" relative="1" as="geometry">
            <mxPoint as="offset" />
          </mxGeometry>
        </mxCell>
        <mxCell id="YsJ4Qs1vf3LCJdpIA0Ks-3" value="磁盘" style="rounded=1;whiteSpace=wrap;html=1;sketch=1;curveFitting=1;jiggle=2;fillColor=#f8cecc;strokeColor=#b85450;fontSize=15;fontStyle=1" vertex="1" parent="1">
          <mxGeometry x="-71" y="434" width="120" height="60" as="geometry" />
        </mxCell>
        <mxCell id="YsJ4Qs1vf3LCJdpIA0Ks-7" value="内核态" style="text;html=1;align=center;verticalAlign=middle;whiteSpace=wrap;rounded=0;fontSize=16;" vertex="1" parent="1">
          <mxGeometry x="-179" y="279" width="84" height="38" as="geometry" />
        </mxCell>
        <mxCell id="YsJ4Qs1vf3LCJdpIA0Ks-15" style="edgeStyle=none;curved=1;rounded=0;orthogonalLoop=1;jettySize=auto;html=1;exitX=0.5;exitY=0;exitDx=0;exitDy=0;entryX=0.5;entryY=1;entryDx=0;entryDy=0;fontSize=12;startSize=8;endSize=8;" edge="1" parent="1" source="YsJ4Qs1vf3LCJdpIA0Ks-8" target="YsJ4Qs1vf3LCJdpIA0Ks-14">
          <mxGeometry relative="1" as="geometry" />
        </mxCell>
        <mxCell id="YsJ4Qs1vf3LCJdpIA0Ks-16" value="CPU拷贝" style="edgeLabel;html=1;align=center;verticalAlign=middle;resizable=0;points=[];fontSize=12;" vertex="1" connectable="0" parent="YsJ4Qs1vf3LCJdpIA0Ks-15">
          <mxGeometry x="0.1756" y="-1" relative="1" as="geometry">
            <mxPoint as="offset" />
          </mxGeometry>
        </mxCell>
        <mxCell id="YsJ4Qs1vf3LCJdpIA0Ks-8" value="&lt;b&gt;&lt;font color=&quot;#000000&quot;&gt;Page Cache&lt;/font&gt;&lt;/b&gt;" style="rounded=1;whiteSpace=wrap;html=1;fillColor=#1ba1e2;strokeColor=#006EAF;sketch=1;curveFitting=1;jiggle=2;fontColor=#ffffff;" vertex="1" parent="1">
          <mxGeometry x="-71" y="302" width="120" height="60" as="geometry" />
        </mxCell>
        <mxCell id="YsJ4Qs1vf3LCJdpIA0Ks-13" value="用户态" style="text;html=1;align=center;verticalAlign=middle;whiteSpace=wrap;rounded=0;fontSize=16;" vertex="1" parent="1">
          <mxGeometry x="-179" y="76" width="84" height="38" as="geometry" />
        </mxCell>
        <mxCell id="YsJ4Qs1vf3LCJdpIA0Ks-14" value="&lt;font color=&quot;#000000&quot;&gt;&lt;b&gt;堆外内存&lt;br&gt;&lt;/b&gt;&lt;/font&gt;" style="rounded=1;whiteSpace=wrap;html=1;fillColor=#d80073;strokeColor=#A50040;sketch=1;curveFitting=1;jiggle=2;fontColor=#ffffff;opacity=50;" vertex="1" parent="1">
          <mxGeometry x="-71" y="156" width="120" height="60" as="geometry" />
        </mxCell>
        <mxCell id="YsJ4Qs1vf3LCJdpIA0Ks-18" value="" style="rounded=0;whiteSpace=wrap;html=1;fillColor=#dae8fc;strokeColor=#6c8ebf;" vertex="1" parent="1">
          <mxGeometry x="82" y="94" width="253" height="160" as="geometry" />
        </mxCell>
        <mxCell id="YsJ4Qs1vf3LCJdpIA0Ks-20" style="edgeStyle=none;curved=1;rounded=0;orthogonalLoop=1;jettySize=auto;html=1;fontSize=12;startSize=8;endSize=8;" edge="1" parent="1" source="YsJ4Qs1vf3LCJdpIA0Ks-14" target="YsJ4Qs1vf3LCJdpIA0Ks-17">
          <mxGeometry relative="1" as="geometry" />
        </mxCell>
        <mxCell id="YsJ4Qs1vf3LCJdpIA0Ks-17" value="byte[] 对象" style="rounded=0;whiteSpace=wrap;html=1;sketch=1;curveFitting=1;jiggle=2;fillColor=#008a00;fontColor=#000000;strokeColor=#005700;fontStyle=1" vertex="1" parent="1">
          <mxGeometry x="119" y="156" width="120" height="60" as="geometry" />
        </mxCell>
        <mxCell id="YsJ4Qs1vf3LCJdpIA0Ks-19" value="Java堆" style="text;html=1;align=center;verticalAlign=middle;whiteSpace=wrap;rounded=0;fontSize=14;" vertex="1" parent="1">
          <mxGeometry x="86" y="97" width="84" height="38" as="geometry" />
        </mxCell>
      </root>
    </mxGraphModel>
  </diagram>
</mxfile>
